<svg xmlns="http://www.w3.org/2000/svg" xmlns:xlink="http://www.w3.org/1999/xlink" preserveAspectRatio="xMidYMid" width="286" height="356" viewBox="0 0 286 356">
  <defs>
    <style>
      .cls-1 {
        fill: #00462e;
      }

      .cls-1, .cls-2, .cls-4 {
        fill-rule: evenodd;
      }

      .cls-2, .cls-4 {
        fill: #92c548;
      }

      .cls-2 {
        opacity: 0.2;
      }

      .cls-3 {
        fill: #fff;
      }
    </style>
  </defs>
  <g>
    <path d="M-0.000,356.000 L-0.000,-0.000 L286.000,-0.000 L286.000,356.000 L-0.000,356.000 ZM162.791,117.151 L162.791,116.107 C197.774,111.930 219.181,100.442 219.181,73.814 C219.181,44.052 189.159,33.088 150.782,33.088 L57.320,33.088 L57.320,37.264 L68.285,39.092 C82.121,41.442 84.210,45.619 84.210,58.150 L84.210,185.289 C84.210,197.821 82.121,201.998 68.285,204.347 L57.320,206.174 L57.320,210.352 L154.176,210.352 C203.518,210.352 227.797,193.122 227.797,161.793 C227.797,134.120 204.562,120.023 162.791,117.151 ZM148.432,205.392 L142.950,205.392 C133.291,205.392 129.113,201.214 129.113,191.294 L129.113,119.762 L143.472,119.762 C165.401,119.762 178.716,131.510 178.716,160.227 C178.716,192.077 167.229,205.392 148.432,205.392 ZM129.113,114.801 L129.113,38.048 L143.211,38.048 C164.357,38.048 173.233,49.796 173.233,74.858 C173.233,99.659 164.879,114.801 142.689,114.801 L129.113,114.801 Z" class="cls-1"/>
    <path d="M57.320,210.352 L154.176,210.352 C203.518,210.352 227.797,193.122 227.797,161.793 C227.797,134.120 204.562,120.023 162.791,117.151 L162.791,116.107 C197.774,111.930 219.181,100.442 219.181,73.814 C219.181,44.052 189.159,33.088 150.782,33.088 L57.320,33.088 L57.320,37.264 L68.285,39.092 C82.121,41.442 84.210,45.619 84.210,58.150 L84.210,185.289 C84.210,197.821 82.121,201.998 68.285,204.347 L57.320,206.174 L57.320,210.352 ZM129.113,114.801 L129.113,38.048 L143.211,38.048 C164.357,38.048 173.233,49.796 173.233,74.858 C173.233,99.659 164.879,114.801 142.689,114.801 L129.113,114.801 ZM129.113,119.762 L143.472,119.762 C165.401,119.762 178.716,131.510 178.716,160.227 C178.716,192.077 167.229,205.392 148.432,205.392 L142.950,205.392 C133.291,205.392 129.113,201.214 129.113,191.294 L129.113,119.762 Z" class="cls-2"/>
    <rect x="53" y="233" width="170" height="1" class="cls-3"/>
    <rect x="53" y="276" width="170" height="1" class="cls-3"/>
    <rect x="53" y="318" width="170" height="1" class="cls-3"/>
    <path d="M211.368,242.772 C208.020,242.772 206.580,244.931 206.580,247.163 C206.580,250.295 209.208,251.627 212.987,253.031 C216.731,254.434 219.935,256.090 219.935,260.626 C219.935,265.377 216.047,267.752 211.944,267.752 C208.848,267.752 206.616,266.962 205.032,265.305 L203.881,267.609 L203.521,267.609 L203.521,257.746 L204.277,257.746 C205.716,264.873 208.236,267.213 211.944,267.213 C215.183,267.213 217.055,265.413 217.055,262.353 C217.055,259.078 214.103,257.854 210.864,256.702 C206.292,255.047 203.701,252.743 203.701,249.035 C203.701,244.788 207.228,242.232 211.332,242.232 C213.995,242.232 215.939,243.024 217.379,244.607 L218.531,242.375 L218.891,242.375 L218.891,251.843 L218.171,251.843 C216.623,245.687 214.931,242.772 211.368,242.772 ZM186.347,267.213 L186.347,266.637 L187.499,266.457 C188.830,266.241 189.298,265.953 189.298,265.449 C189.298,264.945 189.010,264.549 187.859,263.254 L180.444,254.830 L187.571,247.847 C189.406,246.047 189.946,245.364 189.946,244.715 C189.946,244.140 189.586,243.780 188.146,243.564 L186.779,243.348 L186.779,242.772 C188.542,242.808 190.271,242.808 192.070,242.808 C193.870,242.808 195.706,242.808 197.506,242.772 L197.506,243.348 L196.354,243.564 C193.582,244.068 191.566,245.039 188.111,248.387 L183.719,252.598 L192.430,262.426 C195.129,265.449 195.813,265.989 197.685,266.421 L198.657,266.637 L198.657,267.213 C196.570,267.213 194.662,267.177 192.574,267.177 C190.486,267.177 188.434,267.213 186.347,267.213 ZM182.675,266.385 L184.547,266.637 L184.547,267.213 C182.387,267.213 180.587,267.177 178.428,267.177 C176.304,267.177 174.504,267.213 172.345,267.213 L172.345,266.637 L174.216,266.385 C176.232,266.097 176.448,265.522 176.448,263.973 L176.448,246.012 C176.448,244.463 176.232,243.887 174.216,243.600 L172.345,243.348 L172.345,242.772 C174.504,242.772 176.304,242.808 178.428,242.808 C180.587,242.808 182.387,242.772 184.547,242.772 L184.547,243.348 L182.675,243.600 C180.660,243.887 180.444,244.463 180.444,246.012 L180.444,254.830 L180.444,263.973 C180.444,265.522 180.660,266.097 182.675,266.385 ZM181.344,284.885 C184.589,284.885 187.320,285.951 189.535,288.083 C191.937,290.393 193.138,293.469 193.138,297.312 C193.138,301.215 191.896,304.320 189.412,306.629 C187.185,308.692 184.496,309.723 181.344,309.723 C177.968,309.723 175.167,308.580 172.941,306.295 C170.679,303.963 169.548,300.969 169.548,297.312 C169.548,293.469 170.756,290.387 173.170,288.066 C175.384,285.945 178.109,284.885 181.344,284.885 ZM175.862,305.706 C177.352,307.516 179.182,308.422 181.352,308.422 C183.475,308.422 185.291,307.540 186.799,305.776 C188.306,304.013 189.060,301.191 189.060,297.312 C189.060,293.387 188.297,290.551 186.772,288.805 C185.247,287.059 183.441,286.185 181.352,286.185 C179.193,286.185 177.366,287.091 175.870,288.902 C174.374,290.712 173.627,293.515 173.627,297.312 C173.627,301.098 174.371,303.896 175.862,305.706 ZM154.451,267.752 C147.720,267.752 142.248,262.713 142.248,255.011 C142.248,247.271 147.720,242.232 154.451,242.232 C161.146,242.232 166.581,247.271 166.581,255.011 C166.581,262.713 161.146,267.752 154.451,267.752 ZM154.451,242.772 C148.836,242.772 146.712,248.279 146.712,255.011 C146.712,261.706 148.836,267.213 154.451,267.213 C159.922,267.213 162.118,261.706 162.118,255.011 C162.118,248.279 159.958,242.772 154.451,242.772 ZM151.745,284.885 C154.991,284.885 157.722,285.951 159.937,288.083 C162.339,290.393 163.540,293.469 163.540,297.312 C163.540,301.215 162.298,304.320 159.814,306.629 C157.587,308.692 154.898,309.723 151.745,309.723 C148.370,309.723 145.570,308.580 143.343,306.295 C141.081,303.963 139.951,300.969 139.951,297.312 C139.951,293.469 141.157,290.387 143.571,288.066 C145.786,285.945 148.511,284.885 151.745,284.885 ZM146.263,305.706 C147.753,307.516 149.584,308.422 151.754,308.422 C153.877,308.422 155.693,307.540 157.201,305.776 C158.708,304.013 159.462,301.191 159.462,297.312 C159.462,293.387 158.699,290.551 157.174,288.805 C155.649,287.059 153.842,286.185 151.754,286.185 C149.595,286.185 147.768,287.091 146.272,288.902 C144.777,290.712 144.028,293.515 144.028,297.312 C144.028,301.098 144.774,303.896 146.263,305.706 ZM123.635,267.752 C116.904,267.752 111.433,262.713 111.433,255.011 C111.433,247.271 116.904,242.232 123.635,242.232 C130.330,242.232 135.766,247.271 135.766,255.011 C135.766,262.713 130.330,267.752 123.635,267.752 ZM123.635,242.772 C118.020,242.772 115.896,248.279 115.896,255.011 C115.896,261.706 118.020,267.213 123.635,267.213 C129.106,267.213 131.302,261.706 131.302,255.011 C131.302,248.279 129.142,242.772 123.635,242.772 ZM119.845,286.063 C118.527,286.157 117.671,286.397 117.275,286.784 C116.878,287.170 116.680,288.007 116.680,289.297 L116.680,296.311 L127.614,296.311 L127.614,289.297 C127.614,288.007 127.421,287.170 127.034,286.784 C126.647,286.397 125.786,286.157 124.450,286.063 L124.450,285.394 L134.434,285.394 L134.434,286.063 C133.110,286.157 132.252,286.397 131.859,286.784 C131.466,287.170 131.271,288.007 131.271,289.297 L131.271,305.310 C131.271,306.616 131.466,307.452 131.859,307.820 C132.252,308.187 133.110,308.429 134.434,308.544 L134.434,309.213 L124.450,309.213 L124.450,308.544 C125.868,308.405 126.750,308.149 127.095,307.775 C127.441,307.402 127.614,306.440 127.614,304.889 L127.614,297.893 L116.680,297.893 L116.680,305.310 C116.680,306.616 116.878,307.455 117.275,307.828 C117.671,308.201 118.527,308.440 119.845,308.544 L119.845,309.213 L109.860,309.213 L109.860,308.544 C111.266,308.393 112.146,308.134 112.497,307.767 C112.848,307.399 113.024,306.440 113.024,304.889 L113.024,289.297 C113.024,288.007 112.828,287.170 112.435,286.784 C112.042,286.397 111.184,286.157 109.860,286.063 L109.860,285.394 L119.845,285.394 L119.845,286.063 ZM99.262,265.125 L94.403,255.622 C94.115,255.658 93.827,255.658 93.575,255.658 C92.711,255.658 91.847,255.622 90.875,255.586 L90.875,263.973 C90.875,265.522 91.091,266.097 93.107,266.385 L94.979,266.637 L94.979,267.213 C92.819,267.213 91.019,267.177 88.896,267.177 C86.736,267.177 84.936,267.213 82.776,267.213 L82.776,266.637 L84.648,266.385 C86.664,266.097 86.880,265.522 86.880,263.973 L86.880,246.012 C86.880,244.463 86.664,243.887 84.648,243.600 L82.776,243.348 L82.776,242.772 L93.395,242.772 C99.802,242.772 103.870,244.536 103.870,249.143 C103.870,252.635 100.810,254.398 97.930,254.974 C98.434,255.514 98.938,256.270 99.586,257.422 L102.826,263.290 C103.941,265.341 104.374,265.989 105.993,266.349 L107.289,266.637 L107.289,267.213 L102.610,267.213 C100.378,267.213 100.090,266.709 99.262,265.125 ZM99.586,249.251 C99.586,244.715 97.534,243.384 93.395,243.384 L90.875,243.384 L90.875,254.939 C91.883,254.974 92.711,255.011 93.611,255.011 C97.534,255.011 99.586,253.354 99.586,249.251 ZM94.993,284.973 C96.293,284.973 97.629,285.166 99.001,285.553 C100.372,285.939 101.139,286.133 101.303,286.133 C101.643,286.133 101.965,286.040 102.270,285.851 C102.574,285.664 102.786,285.372 102.903,284.973 L103.658,284.973 L103.993,293.058 L103.167,293.058 C102.686,291.454 102.059,290.158 101.286,289.174 C99.809,287.322 97.823,286.397 95.327,286.397 C92.807,286.397 90.748,287.393 89.148,289.385 C87.548,291.378 86.749,294.120 86.749,297.611 C86.749,300.823 87.589,303.386 89.271,305.302 C90.952,307.218 93.082,308.176 95.660,308.176 C97.524,308.176 99.241,307.730 100.811,306.840 C101.713,306.336 102.703,305.574 103.782,304.555 L104.449,305.223 C103.653,306.230 102.663,307.115 101.479,307.877 C99.463,309.166 97.278,309.811 94.922,309.811 C91.055,309.811 87.985,308.574 85.712,306.101 C83.614,303.816 82.565,300.963 82.565,297.541 C82.565,294.037 83.672,291.096 85.887,288.717 C88.219,286.221 91.254,284.973 94.993,284.973 ZM77.121,260.374 C77.121,264.909 73.198,267.213 67.079,267.213 L55.596,267.213 L55.596,266.637 L57.468,266.385 C59.484,266.097 59.700,265.522 59.700,263.973 L59.700,246.012 C59.700,244.463 59.484,243.887 57.468,243.600 L55.596,243.348 L55.596,242.772 L66.683,242.772 C71.326,242.772 75.970,244.104 75.970,248.423 C75.970,251.843 72.874,253.678 68.698,254.255 L68.698,254.398 C73.702,254.722 77.121,256.414 77.121,260.374 ZM71.722,248.423 C71.722,244.320 69.958,243.420 66.359,243.420 L63.695,243.420 L63.695,254.074 L66.251,254.074 C70.174,254.074 71.722,252.167 71.722,248.423 ZM66.215,254.722 L63.695,254.722 L63.695,264.442 C63.695,265.917 64.343,266.565 65.963,266.565 L66.971,266.565 C70.750,266.565 72.550,264.837 72.550,260.338 C72.550,256.234 70.246,254.722 66.215,254.722 ZM62.509,305.838 C63.936,307.514 65.709,308.352 67.826,308.352 C68.973,308.352 69.965,307.988 70.802,307.262 C71.638,306.535 72.057,305.522 72.057,304.220 C72.057,303.049 71.636,302.029 70.794,301.162 C70.244,300.611 69.086,299.786 67.320,298.683 L64.249,296.768 C63.325,296.182 62.588,295.590 62.037,294.992 C61.018,293.856 60.508,292.601 60.508,291.230 C60.508,289.414 61.111,287.903 62.318,286.695 C63.525,285.488 65.125,284.885 67.117,284.885 C67.937,284.885 68.925,285.087 70.079,285.491 C71.234,285.895 71.893,286.098 72.057,286.098 C72.502,286.098 72.810,285.993 72.980,285.781 C73.149,285.571 73.281,285.272 73.375,284.885 L74.113,284.885 L74.904,292.548 L74.043,292.548 C73.457,290.241 72.516,288.629 71.222,287.715 C69.927,286.801 68.646,286.344 67.381,286.344 C66.397,286.344 65.538,286.634 64.805,287.213 C64.073,287.794 63.707,288.600 63.707,289.631 C63.707,290.557 63.988,291.347 64.549,292.004 C65.110,292.672 65.982,293.369 67.165,294.096 L70.327,296.047 C72.305,297.266 73.701,298.385 74.512,299.405 C75.313,300.435 75.713,301.654 75.713,303.061 C75.713,304.948 75.001,306.524 73.577,307.789 C72.154,309.055 70.334,309.687 68.119,309.687 C67.006,309.687 65.843,309.477 64.630,309.055 C63.417,308.633 62.723,308.422 62.547,308.422 C62.125,308.422 61.841,308.551 61.695,308.809 C61.548,309.067 61.451,309.342 61.404,309.635 L60.613,309.635 L59.541,301.971 L60.367,301.971 C60.976,303.588 61.690,304.877 62.509,305.838 ZM208.639,286.063 C207.314,286.133 206.426,286.350 205.976,286.712 C205.524,287.076 205.299,287.855 205.299,289.050 L205.299,306.348 C205.299,306.746 205.366,307.059 205.501,307.288 C205.636,307.516 205.932,307.660 206.390,307.719 C206.660,307.754 206.944,307.778 207.244,307.789 C207.543,307.801 208.103,307.806 208.925,307.806 C212.128,307.806 214.292,307.543 215.418,307.015 C216.545,306.488 217.636,305.141 218.692,302.973 L219.607,302.973 L217.847,309.213 L198.479,309.213 L198.479,308.544 C199.803,308.405 200.661,308.169 201.054,307.836 C201.446,307.505 201.642,306.663 201.642,305.310 L201.642,289.297 C201.642,288.019 201.449,287.184 201.063,286.792 C200.676,286.400 199.814,286.157 198.479,286.063 L198.479,285.394 L208.639,285.394 L208.639,286.063 Z" class="cls-4"/>
  </g>
</svg>
