<?xml version="1.0" standalone="no"?>
<!DOCTYPE svg PUBLIC "-//W3C//DTD SVG 20010904//EN"
 "http://www.w3.org/TR/2001/REC-SVG-20010904/DTD/svg10.dtd">
<svg version="1.0" xmlns="http://www.w3.org/2000/svg"
 width="320.000000pt" height="236.000000pt" viewBox="0 0 320.000000 236.000000"
 preserveAspectRatio="xMidYMid meet">
<metadata>
Created by potrace 1.14, written by Peter Selinger 2001-2017
</metadata>
<g transform="translate(0.000000,236.000000) scale(0.100000,-0.100000)"
fill="#000000" stroke="none">
<path d="M950 2350 c-28 -18 -24 -256 6 -366 l6 -22 -97 24 c-223 54 -477 84
-705 84 -135 0 -160 -6 -160 -36 0 -22 157 -211 279 -337 222 -228 456 -410
694 -537 l97 -52 -24 -31 c-93 -124 -194 -435 -261 -802 -38 -205 -42 -263
-21 -271 39 -15 447 169 591 266 95 64 158 133 149 163 -25 79 -32 185 -14
231 6 16 20 28 37 32 336 74 557 280 645 599 19 70 22 107 22 285 1 204 1 205
29 262 16 32 43 68 60 80 32 23 34 23 472 28 l440 5 0 25 0 25 -421 3 -422 2
-73 74 c-97 96 -155 120 -281 114 -77 -4 -96 -9 -162 -42 -45 -23 -93 -57
-117 -83 -42 -46 -95 -146 -105 -200 l-6 -32 -68 87 c-151 195 -283 313 -422
381 -89 43 -144 56 -168 41z m135 -89 c33 -15 87 -49 120 -74 110 -83 280
-273 380 -425 20 -31 34 -42 49 -40 17 3 22 15 33 86 23 147 84 236 205 298
80 41 186 45 261 11 31 -14 77 -46 102 -72 l46 -46 -50 -45 c-85 -76 -95 -117
-97 -369 -1 -197 -3 -215 -28 -300 -68 -225 -191 -371 -392 -466 -108 -51
-223 -78 -367 -86 -124 -6 -144 -15 -116 -49 12 -14 28 -16 104 -11 l90 6 2
-107 c2 -59 4 -120 5 -136 3 -25 -5 -37 -55 -77 -32 -26 -104 -72 -160 -103
-115 -63 -385 -181 -395 -172 -9 9 45 309 83 461 58 228 138 432 203 514 l20
24 85 -36 c95 -41 122 -45 131 -20 9 24 -8 35 -104 73 -411 159 -823 482
-1140 894 -15 19 -11 19 165 13 335 -12 716 -90 1022 -211 51 -20 65 -22 79
-11 10 7 15 19 11 27 -6 17 -116 62 -253 104 -77 23 -87 29 -99 57 -26 62 -47
292 -28 310 11 12 26 8 88 -22z"/>
</g>
</svg>
